<svg viewBox="0 0 366 98" fill="none" xmlns="http://www.w3.org/2000/svg">
<path d="M18.2208 34.235C20.3175 32.8183 22.7258 32.3933 25.4458 32.96C28.1658 33.5833 29.6958 34.7733 30.0358 36.53C30.4892 35.4533 30.8292 34.3767 31.0558 33.3C33.6058 21.7967 36.4108 13.0133 39.4708 6.95C40.4342 5.08 41.4258 3.77667 42.4458 3.04C45.1092 1.34 47.9142 1.11333 50.8608 2.36C52.0508 2.87 52.9858 3.57833 53.6658 4.48499C54.3458 5.335 54.6008 6.12833 54.4308 6.865C54.3175 7.60166 54.3742 8.19666 54.6008 8.65C54.8842 9.10333 55.1958 9.55667 55.5358 10.01C56.4425 11.0867 56.8108 12.0217 56.6408 12.815C55.5075 17.2917 53.9775 21.9383 52.0508 26.755C50.1808 31.515 48.2542 36.275 46.2708 41.035C44.2875 45.795 42.4742 50.4983 40.8308 55.145C39.2442 59.735 38.1958 64.0983 37.6858 68.235C37.6858 69.3117 37.2325 70.275 36.3258 71.125C35.4192 72.0317 34.2858 72.74 32.9258 73.25C29.6958 74.3833 26.6925 74.1567 23.9158 72.57V72.06C23.3492 71.89 22.9242 71.7767 22.6408 71.72C22.4142 71.6633 22.2442 71.55 22.1308 71.38C21.9608 71.0967 21.8192 70.2183 21.7058 68.745C20.5725 70.5017 19.4675 71.5783 18.3908 71.975C17.3142 72.3717 16.2092 72.57 15.0758 72.57C9.57915 72.57 5.66915 71.5783 3.34582 69.595C1.30582 67.895 0.342487 65.1183 0.45582 61.265C0.569154 56.9583 2.15582 52.1417 5.21582 46.815C8.72915 40.7517 13.0642 36.5583 18.2208 34.235ZM18.1358 62.115C19.9492 62.7383 21.1958 62.3133 21.8758 60.84C22.2725 60.1033 22.6408 59.14 22.9808 57.95C23.3775 56.76 23.8592 55.3717 24.4258 53.785L24.7658 52.085C23.4058 51.2917 22.1592 51.1783 21.0258 51.745C19.9492 52.3117 19.0708 53.19 18.3908 54.38C17.7108 55.57 17.3142 56.9017 17.2008 58.375C17.0875 59.8483 17.3992 61.095 18.1358 62.115ZM76.7002 56.42C75.6235 56.93 74.5752 57.3267 73.5552 57.61C72.5352 57.8933 71.3452 58.1767 69.9852 58.46C66.4152 59.1967 63.8368 59.6217 62.2502 59.735C62.4202 60.3017 63.2702 60.9817 64.8002 61.775C65.8202 61.945 66.9252 61.8033 68.1152 61.35C69.3618 60.84 70.6368 60.3867 71.9402 59.99C73.3002 59.5367 74.6035 59.2817 75.8502 59.225C77.1535 59.1683 78.3718 59.65 79.5052 60.67C79.9585 61.69 80.3268 62.285 80.6102 62.455C80.8935 62.625 81.1485 62.71 81.3752 62.71C81.6018 62.71 81.8568 62.795 82.1402 62.965C82.4235 63.135 82.8202 63.7867 83.3302 64.92C83.8968 66.0533 83.7552 67.13 82.9052 68.15C82.1118 69.17 80.8652 70.0483 79.1652 70.785C77.4652 71.5217 75.4818 72.1167 73.2152 72.57C70.9485 73.0233 68.6818 73.335 66.4152 73.505C61.3152 73.9017 57.4335 73.505 54.7702 72.315C50.9168 71.0117 48.4235 68.4333 47.2902 64.58C45.8168 59.48 46.6385 53.53 49.7552 46.73C51.1718 43.5567 53.4102 40.1567 56.4702 36.53C59.1335 33.3567 62.1085 31.0617 65.3952 29.645C69.1918 28.0017 73.1585 27.2367 77.2952 27.35C81.7152 27.4633 84.7752 29.39 86.4752 33.13C87.3252 35.1133 87.4952 37.89 86.9852 41.46C86.0785 46.1067 84.8885 49.3933 83.4152 51.32C81.9418 53.19 79.7035 54.89 76.7002 56.42ZM71.7702 42.99C68.7668 42.3667 66.4152 44.0667 64.7152 48.09C64.2052 49.1667 63.8085 50.3 63.5252 51.49C65.4518 51.7167 67.4918 50.64 69.6452 48.26C70.4385 47.2967 71.0335 46.3333 71.4302 45.37C71.8268 44.35 71.9402 43.5567 71.7702 42.99ZM118.811 71.04C116.601 72.8533 113.966 74.2133 110.906 75.12C107.903 76.0833 104.871 76.5933 101.811 76.65C98.751 76.7067 95.8893 76.3383 93.226 75.545C90.5627 74.7517 88.466 73.505 86.936 71.805C85.1227 69.8783 84.4993 67.9517 85.066 66.025C85.3493 65.2317 85.8593 64.6083 86.596 64.155C87.276 63.7017 88.126 63.5883 89.146 63.815C89.826 63.8717 90.3077 63.7017 90.591 63.305C90.931 62.8517 91.2143 62.37 91.441 61.86C91.6677 61.2933 91.9227 60.7833 92.206 60.33C92.4893 59.82 92.9427 59.565 93.566 59.565C103.539 59.8483 108.724 58.97 109.121 56.93C108.441 56.3067 107.591 55.7683 106.571 55.315C105.608 54.8617 104.616 54.4083 103.596 53.955C101.103 52.8217 99.431 51.575 98.581 50.215C97.5043 49.6483 96.6827 48.2883 96.116 46.135C95.8327 45.1717 95.691 44.18 95.691 43.16C95.691 42.14 95.861 41.205 96.201 40.355C96.031 38.145 97.391 35.7083 100.281 33.045C101.074 32.3083 102.066 31.515 103.256 30.665C104.446 29.815 106.231 28.9933 108.611 28.2C110.991 27.4067 113.343 26.84 115.666 26.5C118.046 26.1033 120.171 25.9617 122.041 26.075C123.968 26.1883 125.328 26.6417 126.121 27.435C126.971 28.2283 127.623 29.22 128.076 30.41C128.586 31.6 128.756 32.7617 128.586 33.895C128.133 36.445 126.036 38.2017 122.296 39.165C117.593 39.845 115.326 40.4683 115.496 41.035C115.496 41.1483 115.298 41.29 114.901 41.46C119.264 44.4633 122.296 47.41 123.996 50.3C126.319 54.2667 126.659 58.6867 125.016 63.56C125.299 65.1467 123.883 67.13 120.766 69.51C120.029 70.0767 119.378 70.5867 118.811 71.04ZM142.259 32.195C142.996 30.325 144.752 29.05 147.529 28.37C150.136 27.69 152.572 27.775 154.839 28.625C157.162 29.5317 158.211 31.005 157.984 33.045C157.361 35.0283 156.567 37.465 155.604 40.355C154.697 43.1883 153.819 46.1067 152.969 49.11C150.702 56.8167 149.399 62.2567 149.059 65.43C148.209 70.53 146.792 73.2783 144.809 73.675C144.242 73.7883 143.704 73.8733 143.194 73.93C141.947 73.9867 141.154 74.3267 140.814 74.95C140.474 75.5733 139.907 76.0267 139.114 76.31C138.321 76.65 137.442 76.7917 136.479 76.735C135.572 76.735 134.637 76.5083 133.674 76.055C132.711 75.6583 131.889 75.0633 131.209 74.27C129.622 72.3433 129.311 69.765 130.274 66.535C131.181 60.3583 133.476 52.51 137.159 42.99C138.916 38.2867 140.616 34.6883 142.259 32.195ZM158.324 19.445C155.547 20.0117 153.281 19.8417 151.524 18.935C149.824 18.0283 148.832 16.9517 148.549 15.705C148.266 14.4017 148.662 13.07 149.739 11.71C150.986 10.01 152.856 8.905 155.349 8.39499C156.482 8.28166 157.304 8.225 157.814 8.225C158.324 8.225 158.947 8.33833 159.684 8.565C161.554 8.735 162.772 9.55667 163.339 11.03C164.132 12.2767 164.189 13.6933 163.509 15.28C162.886 16.8667 161.157 18.255 158.324 19.445ZM194.049 35.085C195.012 33.3283 196.287 32.45 197.874 32.45C200.31 33.81 201.84 36.02 202.464 39.08C203.087 42.14 202.407 44.8883 200.424 47.325C200.367 47.3817 200.395 47.8633 200.509 48.77C201.529 54.4367 201.16 60.33 199.404 66.45C198.78 68.49 198.044 70.3883 197.194 72.145C196.4 73.9017 195.38 76.1117 194.134 78.775C192.944 81.4383 191.244 84.0733 189.034 86.68C186.824 89.2867 184.33 91.355 181.554 92.885C175.717 96.1717 169.2 96.88 162.004 95.01C159.397 93.99 157.584 92.8 156.564 91.44C155.26 89.7967 154.807 88.04 155.204 86.17C155.6 83.8467 156.96 82.5717 159.284 82.345C160.417 82.2317 161.834 82.6567 163.534 83.62C165.46 84.0167 167.019 83.9883 168.209 83.535C169.399 83.0817 170.334 82.6567 171.014 82.26C171.75 81.92 172.657 81.4667 173.734 80.9C175.604 79.9367 177.729 77.7267 180.109 74.27C181.412 72.4567 182.715 70.02 184.019 66.96C181.922 69.6233 178.579 70.9267 173.989 70.87C172.685 70.8133 171.212 70.7567 169.569 70.7C167.982 70.6433 166.537 70.105 165.234 69.085C163.93 68.065 162.882 66.7333 162.089 65.09C161.295 63.4467 160.757 61.5767 160.474 59.48C160.247 57.3267 160.247 55.145 160.474 52.935C161.38 45.2283 164.61 39.1367 170.164 34.66C173.96 31.5433 178.04 29.8717 182.404 29.645C184.5 29.5317 186.484 29.7583 188.354 30.325C190.62 31.175 192.519 32.7617 194.049 35.085ZM183.679 54.38C183.679 54.21 183.707 54.0683 183.764 53.955C183.48 53.8417 183.197 53.7567 182.914 53.7C182.63 53.5867 182.12 53.4167 181.384 53.19C180.647 52.9633 179.655 53.105 178.409 53.615C177.162 54.0683 176.057 54.72 175.094 55.57C174.187 56.3633 173.45 57.2133 172.884 58.12C172.374 59.0267 172.289 59.7917 172.629 60.415C173.025 61.0383 173.705 61.2933 174.669 61.18C175.632 61.01 176.68 60.585 177.814 59.905C180.307 58.375 182.262 56.5333 183.679 54.38ZM218.613 32.195C222.41 30.665 224.96 30.6367 226.263 32.11C226.943 32.9033 227.283 34.0083 227.283 35.425V35.85C229.38 33.4133 233.035 31.3733 238.248 29.73C243.745 28.03 248.278 27.5483 251.848 28.285C256.495 29.2483 259.101 32.28 259.668 37.38C260.121 41.6867 259.13 47.155 256.693 53.785C255.9 55.485 255.276 56.8733 254.823 57.95C254.426 58.97 254.058 59.905 253.718 60.755C252.981 62.3417 251.82 64.24 250.233 66.45C249.326 68.15 247.91 69.4533 245.983 70.36C244.113 71.2667 242.243 71.7767 240.373 71.89C238.56 72.06 237.058 71.7767 235.868 71.04C234.678 70.36 234.338 69.255 234.848 67.725C236.151 64.2117 237.228 61.01 238.078 58.12C238.928 55.23 239.806 52.765 240.713 50.725C241.563 47.835 241.676 46.0217 241.053 45.285C240.543 44.7183 239.665 44.8033 238.418 45.54C237.341 46.22 236.576 47.0133 236.123 47.92C235.103 48.6567 233.176 51.6033 230.343 56.76C229.55 58.1767 228.756 59.5933 227.963 61.01C227.226 62.37 226.518 63.645 225.838 64.835C225.215 66.025 224.648 67.0167 224.138 67.81C223.685 68.6033 223.26 69.1133 222.863 69.34C222.523 69.6233 222.211 69.7933 221.928 69.85C221.701 69.9633 221.503 70.0767 221.333 70.19C221.163 70.3033 221.021 70.6717 220.908 71.295C220.681 72.5983 219.321 73.5617 216.828 74.185C212.805 75.205 209.178 75.035 205.948 73.675C204.871 73.2217 204.021 72.5983 203.398 71.805C202.095 69.1983 204.333 60.33 210.113 45.2C212.153 39.8733 213.485 36.7 214.108 35.68C215.525 33.5267 216.431 32.3083 216.828 32.025C217.281 31.7417 217.876 31.7983 218.613 32.195Z" fill="#84A59D"/>
<path d="M271.682 32.025C271.796 30.9483 272.476 30.07 273.722 29.39C274.969 28.71 276.357 28.37 277.887 28.37C279.417 28.37 280.891 28.7383 282.307 29.475C283.781 30.155 284.772 31.345 285.282 33.045C290.099 28.8517 294.491 27.2367 298.457 28.2C299.817 28.4833 300.979 29.2767 301.942 30.58C304.832 27.8033 308.034 25.99 311.547 25.14C315.967 24.97 319.141 25.99 321.067 28.2C321.351 28.4833 321.634 28.795 321.917 29.135C322.711 29.985 323.164 30.5517 323.277 30.835C324.297 32.4217 324.581 36.0767 324.127 41.8C323.504 49.2233 322.087 56.675 319.877 64.155C318.687 67.9517 317.611 69.9067 316.647 70.02C316.081 70.1333 315.542 70.1333 315.032 70.02C314.579 69.9067 314.154 69.8217 313.757 69.765C313.417 69.765 313.219 70.105 313.162 70.785C312.029 72.2583 310.301 72.995 307.977 72.995C305.711 72.995 303.784 72.2867 302.197 70.87C300.441 69.3967 299.817 67.6683 300.327 65.685C300.894 63.645 301.517 61.5767 302.197 59.48C302.877 57.3267 303.614 55.1167 304.407 52.85C305.767 48.8833 307.269 44.7467 308.912 40.44C307.722 41.8 306.107 44.3783 304.067 48.175C302.027 51.915 300.752 54.1533 300.242 54.89C299.279 56.8167 298.486 58.3467 297.862 59.48C297.239 60.5567 296.389 61.435 295.312 62.115C294.292 62.7383 293.329 63.135 292.422 63.305C291.572 63.475 290.751 63.5033 289.957 63.39C288.087 63.1067 286.756 62.3133 285.962 61.01C285.792 60.5567 285.622 60.1033 285.452 59.65C285.282 59.1967 285.141 58.5733 285.027 57.78C284.857 56.0233 285.084 53.1617 285.707 49.195L285.537 49.45C286.217 48.77 286.444 48.6 286.217 48.94C283.951 52.17 282.591 54.2383 282.137 55.145C281.684 56.0517 281.202 57.0717 280.692 58.205C280.182 59.2817 279.587 60.5567 278.907 62.03C278.227 63.4467 277.689 64.7217 277.292 65.855C276.896 66.9883 276.414 68.0933 275.847 69.17C273.297 73.59 268.821 75.375 262.417 74.525C261.057 74.355 259.896 74.015 258.932 73.505C257.969 73.0517 257.572 72.3433 257.742 71.38C258.196 69.1133 259.244 65.345 260.887 60.075C264.117 49.6483 266.044 42.9333 266.667 39.93C267.064 38.91 267.404 37.8617 267.687 36.785C268.027 35.7083 268.367 34.7733 268.707 33.98C269.387 32.11 270.379 31.4583 271.682 32.025ZM301.177 53.02V53.19C301.291 52.9633 301.291 52.9067 301.177 53.02ZM354.693 56.42C353.617 56.93 352.568 57.3267 351.548 57.61C350.528 57.8933 349.338 58.1767 347.978 58.46C344.408 59.1967 341.83 59.6217 340.243 59.735C340.413 60.3017 341.263 60.9817 342.793 61.775C343.813 61.945 344.918 61.8033 346.108 61.35C347.355 60.84 348.63 60.3867 349.933 59.99C351.293 59.5367 352.597 59.2817 353.843 59.225C355.147 59.1683 356.365 59.65 357.498 60.67C357.952 61.69 358.32 62.285 358.603 62.455C358.887 62.625 359.142 62.71 359.368 62.71C359.595 62.71 359.85 62.795 360.133 62.965C360.417 63.135 360.813 63.7867 361.323 64.92C361.89 66.0533 361.748 67.13 360.898 68.15C360.105 69.17 358.858 70.0483 357.158 70.785C355.458 71.5217 353.475 72.1167 351.208 72.57C348.942 73.0233 346.675 73.335 344.408 73.505C339.308 73.9017 335.427 73.505 332.763 72.315C328.91 71.0117 326.417 68.4333 325.283 64.58C323.81 59.48 324.632 53.53 327.748 46.73C329.165 43.5567 331.403 40.1567 334.463 36.53C337.127 33.3567 340.102 31.0617 343.388 29.645C347.185 28.0017 351.152 27.2367 355.288 27.35C359.708 27.4633 362.768 29.39 364.468 33.13C365.318 35.1133 365.488 37.89 364.978 41.46C364.072 46.1067 362.882 49.3933 361.408 51.32C359.935 53.19 357.697 54.89 354.693 56.42ZM349.763 42.99C346.76 42.3667 344.408 44.0667 342.708 48.09C342.198 49.1667 341.802 50.3 341.518 51.49C343.445 51.7167 345.485 50.64 347.638 48.26C348.432 47.2967 349.027 46.3333 349.423 45.37C349.82 44.35 349.933 43.5567 349.763 42.99Z" fill="#F6BD60" />
</svg>
